# xmcd CD database file
#
# Track frame offsets:
#	150
#	5570
#	23465
#	40995
#	52562
#	72500
#	89657
#	109677
#	130567
#	145910
#	155427
#	166712
#	184027
#	204495
#	224435
#
# Disc length: 3427 seconds
#
# Revision: 0
# Processed by: cddbd v1.5PL3 Copyright (c) Steve Scherf et al.
# Submitted via: CDex 1.40Release
#
DISCID=c20d610f
DTITLE=望月久代 - Love
DYEAR=2003
DGENRE=Vocal
TTITLE0=プロローグ
TTITLE1=ラブピー！
TTITLE2=[ドラマ]イイ夢旅気分〜ぶらり温泉街道まっしぐら〜（前編）
TTITLE3=[インスト]おもちゃのチャチャチャ
TTITLE4=[ドラマ]イイ夢旅気分〜ぶらり温泉街道まっしぐら〜（後編）
TTITLE5=予告編
TTITLE6=[ドラマ]噂の刑事 人妻デカとチチデカ
TTITLE7=秘密
TTITLE8=[ドラマ]楽しい英会話でHappy Lifeを!
TTITLE9=[インスト]Star Words
TTITLE10=[ドラマ]ニュースステージ
TTITLE11=私たちのMiracle[Loveって愛？ver]
TTITLE12=[ドラマ]Suke-ban刑事
TTITLE13=heart wing−心の翼−
TTITLE14=エピローグ（さらに[愛]のボツトラック付き）
EXTD=YEAR: 2003 ID3G: 28
EXTT0=
EXTT1=
EXTT2=
EXTT3=
EXTT4=
EXTT5=
EXTT6=
EXTT7=
EXTT8=
EXTT9=
EXTT10=
EXTT11=
EXTT12=
EXTT13=
EXTT14=
PLAYORDER=
